<mxfile host="65bd71144e">
    <diagram id="WGES1KUT1p_4ddgzK-qU" name="Página-1">
        <mxGraphModel dx="1758" dy="1658" grid="1" gridSize="10" guides="1" tooltips="1" connect="1" arrows="1" fold="1" page="1" pageScale="1" pageWidth="850" pageHeight="1100" background="none" math="0" shadow="0">
            <root>
                <mxCell id="0"/>
                <mxCell id="1" parent="0"/>
                <mxCell id="tRw1tZgD3ZKrqJKn9G3x-38" value="" style="edgeStyle=none;html=1;" edge="1" parent="1" source="2" target="tRw1tZgD3ZKrqJKn9G3x-37">
                    <mxGeometry relative="1" as="geometry"/>
                </mxCell>
                <mxCell id="2" value="inicio" style="ellipse;whiteSpace=wrap;html=1;fillColor=#008a00;fontColor=#ffffff;strokeColor=#005700;" vertex="1" parent="1">
                    <mxGeometry x="-770" y="40" width="120" height="80" as="geometry"/>
                </mxCell>
                <mxCell id="tRw1tZgD3ZKrqJKn9G3x-7" style="edgeStyle=none;html=1;exitX=0.5;exitY=0;exitDx=0;exitDy=0;" edge="1" parent="1">
                    <mxGeometry relative="1" as="geometry">
                        <mxPoint x="70" y="160" as="targetPoint"/>
                        <mxPoint x="70" y="160" as="sourcePoint"/>
                    </mxGeometry>
                </mxCell>
                <mxCell id="tRw1tZgD3ZKrqJKn9G3x-40" style="edgeStyle=none;html=1;exitX=-0.019;exitY=0.608;exitDx=0;exitDy=0;entryX=0.5;entryY=1;entryDx=0;entryDy=0;exitPerimeter=0;" edge="1" parent="1" source="tRw1tZgD3ZKrqJKn9G3x-11" target="tRw1tZgD3ZKrqJKn9G3x-37">
                    <mxGeometry relative="1" as="geometry">
                        <mxPoint x="-710" y="320" as="targetPoint"/>
                        <Array as="points">
                            <mxPoint x="-710" y="320"/>
                        </Array>
                    </mxGeometry>
                </mxCell>
                <mxCell id="tRw1tZgD3ZKrqJKn9G3x-44" value="v" style="edgeStyle=none;html=1;exitX=0.5;exitY=0;exitDx=0;exitDy=0;entryX=1;entryY=0.5;entryDx=0;entryDy=0;" edge="1" parent="1" source="tRw1tZgD3ZKrqJKn9G3x-11" target="tRw1tZgD3ZKrqJKn9G3x-37">
                    <mxGeometry relative="1" as="geometry">
                        <Array as="points">
                            <mxPoint x="-490" y="210"/>
                        </Array>
                    </mxGeometry>
                </mxCell>
                <mxCell id="tRw1tZgD3ZKrqJKn9G3x-45" value="verdadeiro" style="edgeLabel;html=1;align=center;verticalAlign=middle;resizable=0;points=[];" vertex="1" connectable="0" parent="tRw1tZgD3ZKrqJKn9G3x-44">
                    <mxGeometry x="-0.5755" y="-2" relative="1" as="geometry">
                        <mxPoint as="offset"/>
                    </mxGeometry>
                </mxCell>
                <mxCell id="tRw1tZgD3ZKrqJKn9G3x-11" value="executa" style="whiteSpace=wrap;html=1;aspect=fixed;" vertex="1" parent="1">
                    <mxGeometry x="-530" y="270" width="80" height="80" as="geometry"/>
                </mxCell>
                <mxCell id="tRw1tZgD3ZKrqJKn9G3x-14" value="" style="ellipse;whiteSpace=wrap;html=1;fillColor=#a0522d;fontColor=#ffffff;strokeColor=#6D1F00;" vertex="1" parent="1">
                    <mxGeometry x="-840" y="390" width="80" height="70" as="geometry"/>
                </mxCell>
                <mxCell id="tRw1tZgD3ZKrqJKn9G3x-15" value="" style="ellipse;whiteSpace=wrap;html=1;fillColor=#6d8764;fontColor=#ffffff;strokeColor=#3A5431;" vertex="1" parent="1">
                    <mxGeometry y="-100" width="120" height="90" as="geometry"/>
                </mxCell>
                <mxCell id="tRw1tZgD3ZKrqJKn9G3x-21" value="" style="ellipse;whiteSpace=wrap;html=1;fillColor=#a0522d;fontColor=#ffffff;strokeColor=#6D1F00;" vertex="1" parent="1">
                    <mxGeometry x="30" y="310" width="70" height="70" as="geometry"/>
                </mxCell>
                <mxCell id="tRw1tZgD3ZKrqJKn9G3x-25" style="edgeStyle=none;html=1;exitX=0.5;exitY=0;exitDx=0;exitDy=0;" edge="1" parent="1">
                    <mxGeometry relative="1" as="geometry">
                        <mxPoint x="-480" y="180" as="targetPoint"/>
                        <mxPoint x="-480" y="180" as="sourcePoint"/>
                    </mxGeometry>
                </mxCell>
                <mxCell id="tRw1tZgD3ZKrqJKn9G3x-30" style="edgeStyle=none;html=1;" edge="1" parent="1">
                    <mxGeometry relative="1" as="geometry">
                        <mxPoint x="60" y="55" as="targetPoint"/>
                        <mxPoint x="60" y="-10" as="sourcePoint"/>
                    </mxGeometry>
                </mxCell>
                <mxCell id="tRw1tZgD3ZKrqJKn9G3x-31" style="edgeStyle=none;html=1;exitX=0.5;exitY=1;exitDx=0;exitDy=0;" edge="1" parent="1" source="tRw1tZgD3ZKrqJKn9G3x-32">
                    <mxGeometry relative="1" as="geometry">
                        <mxPoint x="65" y="195" as="targetPoint"/>
                    </mxGeometry>
                </mxCell>
                <mxCell id="tRw1tZgD3ZKrqJKn9G3x-32" value="executada" style="whiteSpace=wrap;html=1;aspect=fixed;" vertex="1" parent="1">
                    <mxGeometry x="20" y="55" width="90" height="90" as="geometry"/>
                </mxCell>
                <mxCell id="tRw1tZgD3ZKrqJKn9G3x-33" value="falsa" style="edgeStyle=none;html=1;exitX=0.5;exitY=1;exitDx=0;exitDy=0;" edge="1" parent="1" source="tRw1tZgD3ZKrqJKn9G3x-35">
                    <mxGeometry relative="1" as="geometry">
                        <mxPoint x="65" y="305" as="targetPoint"/>
                    </mxGeometry>
                </mxCell>
                <mxCell id="tRw1tZgD3ZKrqJKn9G3x-34" value="verdadeiro" style="edgeStyle=none;html=1;exitX=1;exitY=0.5;exitDx=0;exitDy=0;entryX=1;entryY=0.5;entryDx=0;entryDy=0;" edge="1" parent="1" source="tRw1tZgD3ZKrqJKn9G3x-35" target="tRw1tZgD3ZKrqJKn9G3x-32">
                    <mxGeometry relative="1" as="geometry">
                        <mxPoint x="190" y="75" as="targetPoint"/>
                        <Array as="points">
                            <mxPoint x="190" y="230"/>
                            <mxPoint x="190" y="100"/>
                        </Array>
                    </mxGeometry>
                </mxCell>
                <mxCell id="tRw1tZgD3ZKrqJKn9G3x-35" value="condição" style="rhombus;whiteSpace=wrap;html=1;fillColor=#f0a30a;fontColor=#000000;strokeColor=#BD7000;" vertex="1" parent="1">
                    <mxGeometry x="25" y="195" width="80" height="70" as="geometry"/>
                </mxCell>
                <mxCell id="tRw1tZgD3ZKrqJKn9G3x-39" style="edgeStyle=none;html=1;exitX=0;exitY=0.5;exitDx=0;exitDy=0;entryX=0.5;entryY=0;entryDx=0;entryDy=0;" edge="1" parent="1" source="tRw1tZgD3ZKrqJKn9G3x-37" target="tRw1tZgD3ZKrqJKn9G3x-14">
                    <mxGeometry relative="1" as="geometry">
                        <mxPoint x="-800" y="210" as="targetPoint"/>
                        <Array as="points">
                            <mxPoint x="-800" y="210"/>
                        </Array>
                    </mxGeometry>
                </mxCell>
                <mxCell id="tRw1tZgD3ZKrqJKn9G3x-37" value="condição" style="rhombus;whiteSpace=wrap;html=1;fillColor=#f0a30a;fontColor=#000000;strokeColor=#BD7000;" vertex="1" parent="1">
                    <mxGeometry x="-750" y="170" width="80" height="80" as="geometry"/>
                </mxCell>
            </root>
        </mxGraphModel>
    </diagram>
</mxfile>